<svg xmlns="http://www.w3.org/2000/svg" viewBox="0 0 48 48">
    <defs>
        <style>.cls-1{fill:#1e0f00;}</style>
    </defs>
    <title>Asset 101</title>
    <g id="Layer_2" data-name="Layer 2">
        <g id="_1" data-name="1">
            <rect class="cls-1" y="46" width="48" height="2" />
            <path class="cls-1"
                d="M46,48H2a1,1,0,0,1-1-1V9a1,1,0,0,1,.66-.94l22-8a1,1,0,0,1,.68,0l22,8A1,1,0,0,1,47,9V47A1,1,0,0,1,46,48ZM3,46H45V9.7L24,2.06,3,9.7Z" />
            <path class="cls-1"
                d="M40,48H8a1,1,0,0,1-1-1V13a1,1,0,0,1,1-1H40a1,1,0,0,1,1,1V47A1,1,0,0,1,40,48ZM9,46H39V14H9Z" />
            <path class="cls-1"
                d="M40,19H8a1,1,0,0,1-1-1V13a1,1,0,0,1,1-1H40a1,1,0,0,1,1,1v5A1,1,0,0,1,40,19ZM9,17H39V14H9Z" />
            <path class="cls-1"
                d="M40,24H8a1,1,0,0,1-1-1V18a1,1,0,0,1,1-1H40a1,1,0,0,1,1,1v5A1,1,0,0,1,40,24ZM9,22H39V19H9Z" />
            <path class="cls-1"
                d="M35,43H13a1,1,0,0,1-1-1V36a3,3,0,0,1,3-3H33a3,3,0,0,1,3,3v6A1,1,0,0,1,35,43ZM14,41H34V36a1,1,0,0,0-1-1H15a1,1,0,0,0-1,1Z" />
            <path class="cls-1"
                d="M33,35H15a1,1,0,0,1-.81-.42,1,1,0,0,1-.14-.9l1.55-4.63A3,3,0,0,1,18.44,27H29.56a3,3,0,0,1,2.84,2.05L34,33.68a1,1,0,0,1-.14.9A1,1,0,0,1,33,35ZM16.39,33H31.61l-1.1-3.32a1,1,0,0,0-1-.68H18.44a1,1,0,0,0-1,.68Z" />
            <path class="cls-1"
                d="M19,48H14a1,1,0,0,1-1-1V42a1,1,0,0,1,1-1h5a1,1,0,0,1,1,1v5A1,1,0,0,1,19,48Zm-4-2h3V43H15Z" />
            <path class="cls-1"
                d="M34,48H29a1,1,0,0,1-1-1V42a1,1,0,0,1,1-1h5a1,1,0,0,1,1,1v5A1,1,0,0,1,34,48Zm-4-2h3V43H30Z" />
            <rect class="cls-1" x="16" y="37" width="4" height="2" />
            <rect class="cls-1" x="28" y="37" width="4" height="2" />
            <rect class="cls-1" x="11" y="41" width="26" height="2" />
        </g>
    </g>
</svg>